# xmcd
#
# Track frame offsets: 
#        300
#        18001
#        35312
#        45164
#        66087
#        82819
#        101832
#        118834
#        135644
#        154334
#        170715
#        184885
#
# Disc length: 2721 seconds
#
# Revision: 0
# Processed by: cddbd v1.5.2PL0 Copyright (c) Steve Scherf et al.
# Submitted via: ExactAudioCopy v1.1
#
DISCID=970a9d0c
DTITLE=John Wilson - Goodbye
DYEAR=2006
DGENRE=Country
TTITLE0=Goodbye's All We've Got
TTITLE1=Can't Be Really Gone
TTITLE2=Think It Over
TTITLE3=Whiskey on the Ice
TTITLE4=Folsom Prison Blues
TTITLE5=The Road to Hell
TTITLE6=Say Goodbye to Little Joe
TTITLE7=Silver Wings
TTITLE8=Stumpy
TTITLE9=Bank Hotel (Other Side of Midnight)
TTITLE10=Carroll County Accident
TTITLE11=Things I Wish I'd Said
EXTD=
EXTT0=
EXTT1=
EXTT2=
EXTT3=
EXTT4=
EXTT5=
EXTT6=
EXTT7=
EXTT8=
EXTT9=
EXTT10=
EXTT11=
PLAYORDER=
